<?xml version="1.0" encoding="UTF-8" standalone="no"?>
<!DOCTYPE svg PUBLIC "-//W3C//DTD SVG 1.1//EN"
 "http://www.w3.org/Graphics/SVG/1.1/DTD/svg11.dtd">
<!-- Generated by graphviz version 2.43.0 (0)
 -->
<!-- Title: G Pages: 1 -->
<svg width="536pt" height="152pt"
 viewBox="0.00 0.00 536.00 152.00" xmlns="http://www.w3.org/2000/svg" xmlns:xlink="http://www.w3.org/1999/xlink">
<g id="graph0" class="graph" transform="scale(1 1) rotate(0) translate(4 148)">
<title>G</title>
<polygon fill="white" stroke="transparent" points="-4,4 -4,-148 532,-148 532,4 -4,4"/>
<!-- data.aws_ami.ami&#45;resource -->
<g id="node1" class="node">
<title>data.aws_ami.ami&#45;resource</title>
<polygon fill="none" stroke="black" points="227,-144 21,-144 21,-108 227,-108 227,-144"/>
<text text-anchor="middle" x="124" y="-122.3" font-family="sans-serif" font-size="14.00">data.aws_ami.ami&#45;resource</text>
</g>
<!-- aws_instance.Terraform&#45;Instance -->
<g id="node2" class="node">
<title>aws_instance.Terraform&#45;Instance</title>
<polygon fill="none" stroke="black" points="528,-90 284,-90 284,-54 528,-54 528,-90"/>
<text text-anchor="middle" x="406" y="-68.3" font-family="sans-serif" font-size="14.00">aws_instance.Terraform&#45;Instance</text>
</g>
<!-- aws_instance.Terraform&#45;Instance&#45;&gt;data.aws_ami.ami&#45;resource -->
<g id="edge1" class="edge">
<title>aws_instance.Terraform&#45;Instance&#45;&gt;data.aws_ami.ami&#45;resource</title>
<path fill="none" stroke="black" d="M311.37,-90.06C284.76,-95.19 255.61,-100.81 228.45,-106.05"/>
<polygon fill="black" stroke="black" points="227.69,-102.63 218.54,-107.96 229.02,-109.5 227.69,-102.63"/>
</g>
<!-- aws_key_pair.Terraform&#45;SSH&#45;Key -->
<g id="node3" class="node">
<title>aws_key_pair.Terraform&#45;SSH&#45;Key</title>
<polygon fill="none" stroke="black" points="244.5,-90 3.5,-90 3.5,-54 244.5,-54 244.5,-90"/>
<text text-anchor="middle" x="124" y="-68.3" font-family="sans-serif" font-size="14.00">aws_key_pair.Terraform&#45;SSH&#45;Key</text>
</g>
<!-- aws_instance.Terraform&#45;Instance&#45;&gt;aws_key_pair.Terraform&#45;SSH&#45;Key -->
<g id="edge2" class="edge">
<title>aws_instance.Terraform&#45;Instance&#45;&gt;aws_key_pair.Terraform&#45;SSH&#45;Key</title>
<path fill="none" stroke="black" d="M283.82,-72C274.16,-72 264.39,-72 254.68,-72"/>
<polygon fill="black" stroke="black" points="254.6,-68.5 244.6,-72 254.6,-75.5 254.6,-68.5"/>
</g>
<!-- aws_security_group.Terraform&#45;SG -->
<g id="node4" class="node">
<title>aws_security_group.Terraform&#45;SG</title>
<polygon fill="none" stroke="black" points="248,-36 0,-36 0,0 248,0 248,-36"/>
<text text-anchor="middle" x="124" y="-14.3" font-family="sans-serif" font-size="14.00">aws_security_group.Terraform&#45;SG</text>
</g>
<!-- aws_instance.Terraform&#45;Instance&#45;&gt;aws_security_group.Terraform&#45;SG -->
<g id="edge3" class="edge">
<title>aws_instance.Terraform&#45;Instance&#45;&gt;aws_security_group.Terraform&#45;SG</title>
<path fill="none" stroke="black" d="M311.37,-53.94C284.76,-48.81 255.61,-43.19 228.45,-37.95"/>
<polygon fill="black" stroke="black" points="229.02,-34.5 218.54,-36.04 227.69,-41.37 229.02,-34.5"/>
</g>
</g>
</svg>
